# File produced by Open Asset Import Library (http://www.assimp.sf.net)
# (assimp v5.0.0)

mtllib Object.mtl

# 8 vertex positions
v  -1 1 -1
v  1 1 1
v  1 1 -1
v  -1 -1 1
v  1 -1 1
v  -1 1 1
v  -1 -1 -1
v  1 -1 -1

# 14 UV coordinates
vt	4.375	2.5	0
vt	3.125	3.75	0
vt	3.125	2.5	0
vt	1.875	5	0
vt	1.875	3.75	0
vt	3.125	0	0
vt	1.875	1.25	0
vt	1.875	0	0
vt	1.875	2.5	0
vt	0.625	3.75	0
vt	0.625	2.5	0
vt	3.125	1.25	0
vt	4.375	3.75	0
vt	3.125	5	0

# 6 vertex normals
vn 0 1 0
vn 0 0 1
vn -1 -0 -0
vn -0 -1 -0
vn 1 0 0
vn -0 -0 -1

# Mesh 'Cube' with 12 faces
g Cube
usemtl Cube
f  1/1/1 2/2/1 3/3/1
f  2/2/2 4/4/2 5/5/2
f  6/6/3 7/7/3 4/8/3
f  8/9/4 4/10/4 7/11/4
f  3/3/5 5/5/5 8/9/5
f  1/12/6 8/9/6 7/7/6
f  1/1/1 6/13/1 2/2/1
f  2/2/2 6/14/2 4/4/2
f  6/6/3 1/12/3 7/7/3
f  8/9/4 5/5/4 4/10/4
f  3/3/5 2/2/5 5/5/5
f  1/12/6 3/3/6 8/9/6

